<?xml version="1.0" standalone="no"?>
<!DOCTYPE svg PUBLIC "-//W3C//DTD SVG 20010904//EN"
 "http://www.w3.org/TR/2001/REC-SVG-20010904/DTD/svg10.dtd">
<svg version="1.0" xmlns="http://www.w3.org/2000/svg"
 width="512.000000pt" height="512.000000pt" viewBox="0 0 512.000000 512.000000"
 preserveAspectRatio="xMidYMid meet">
<metadata>
Created by potrace 1.14, written by Peter Selinger 2001-2017
</metadata>
<g transform="translate(0.000000,512.000000) scale(0.100000,-0.100000)"
fill="#000000" stroke="none">
<path d="M501 5105 c-177 -39 -346 -171 -429 -335 -77 -153 -72 5 -72 -2210 0
-2214 -5 -2054 72 -2209 81 -165 254 -299 433 -336 106 -22 4005 -22 4109 0
182 38 350 168 434 335 77 153 72 -5 72 2210 0 2214 5 2054 -72 2209 -81 165
-254 299 -433 336 -102 21 -4016 21 -4114 0z m1413 -1640 c342 -88 548 -318
612 -685 12 -73 15 -134 11 -265 -5 -180 -20 -259 -71 -385 -80 -198 -248
-365 -438 -434 -152 -55 -185 -58 -595 -63 l-383 -5 0 932 0 931 398 -4 c338
-3 407 -6 466 -22z m2246 -95 l0 -120 -290 0 -290 0 0 -810 0 -810 -140 0
-140 0 0 810 0 810 -290 0 -290 0 0 120 0 120 720 0 720 0 0 -120z"/>
<path d="M1330 2559 l0 -692 223 6 c246 6 295 14 412 72 132 64 231 193 277
362 18 65 21 107 22 253 1 154 -2 185 -22 255 -71 246 -212 379 -446 420 -58
10 -153 15 -277 15 l-189 0 0 -691z"/>
</g>
</svg>
