<svg width="512" height="512" viewBox="0 0 512 512" fill="none" xmlns="http://www.w3.org/2000/svg">
<rect width="512" height="512" rx="64" fill="#5398D7"/>
<path d="M143.688 372H71.8693V139.273H146.869C169.445 139.273 188.763 143.932 204.824 153.25C220.884 162.492 233.195 175.788 241.756 193.136C250.316 210.409 254.597 231.091 254.597 255.182C254.597 279.424 250.278 300.295 241.642 317.795C233.006 335.22 220.43 348.629 203.915 358.023C187.4 367.341 167.324 372 143.688 372ZM100.051 347H141.869C161.112 347 177.059 343.288 189.71 335.864C202.362 328.439 211.794 317.871 218.006 304.159C224.218 290.447 227.324 274.121 227.324 255.182C227.324 236.394 224.256 220.22 218.119 206.659C211.983 193.023 202.816 182.568 190.619 175.295C178.422 167.947 163.233 164.273 145.051 164.273H100.051V347ZM279.455 164.273V139.273H454V164.273H380.818V372H352.636V164.273H279.455Z" fill="white"/>
</svg>
