<svg width="512" height="512" viewBox="0 0 512 512" fill="none" xmlns="http://www.w3.org/2000/svg">
<rect width="512" height="512" rx="64" fill="#201A1A"/>
<path d="M164.977 349H104.705V162.818H166.886C185.129 162.818 200.795 166.545 213.886 174C226.977 181.394 237.008 192.03 243.977 205.909C251.008 219.727 254.523 236.303 254.523 255.636C254.523 275.03 250.977 291.697 243.886 305.636C236.856 319.576 226.674 330.303 213.341 337.818C200.008 345.273 183.886 349 164.977 349ZM132.795 324.455H163.432C177.614 324.455 189.402 321.788 198.795 316.455C208.189 311.061 215.22 303.273 219.886 293.091C224.553 282.848 226.886 270.364 226.886 255.636C226.886 241.03 224.553 228.636 219.886 218.455C215.28 208.273 208.402 200.545 199.25 195.273C190.098 190 178.735 187.364 165.159 187.364H132.795V324.455ZM272.273 187V162.818H416.364V187H358.273V349H330.273V187H272.273Z" fill="#EEBF78"/>
</svg>
